<?xml version="1.0" standalone="no"?>
<!DOCTYPE svg PUBLIC "-//W3C//DTD SVG 20010904//EN"
 "http://www.w3.org/TR/2001/REC-SVG-20010904/DTD/svg10.dtd">
<svg version="1.0" xmlns="http://www.w3.org/2000/svg"
 width="827.000000pt" height="512.000000pt" viewBox="0 0 827.000000 512.000000"
 preserveAspectRatio="xMidYMid meet">
<metadata>
Created by potrace 1.16, written by Peter Selinger 2001-2019
</metadata>
<g transform="translate(0.000000,512.000000) scale(0.100000,-0.100000)"
fill="#000000" stroke="none">
<path d="M5692 3611 c-1 -118 1 -211 5 -208 4 4 7 24 7 45 1 33 4 37 29 40
l29 3 -4 -66 c-3 -61 -1 -66 19 -72 13 -3 30 -3 38 1 10 3 15 -1 15 -12 0 -13
2 -14 9 -4 4 7 6 24 3 38 -5 29 13 54 40 54 18 0 19 -6 17 -67 -1 -37 2 -68 7
-70 5 -2 8 26 6 64 l-3 68 31 -33 c30 -32 39 -69 21 -88 -6 -5 -4 -14 5 -22 8
-7 14 -10 14 -6 0 4 12 -3 27 -17 l27 -24 -28 34 c-36 44 -33 85 7 89 27 3 27
3 29 -65 l2 -68 3 63 c2 34 8 62 13 62 5 0 18 -13 30 -30 28 -40 24 -82 -10
-92 -24 -7 -24 -8 3 -4 15 2 27 -1 27 -7 0 -6 3 -7 6 -4 4 4 23 -7 42 -24 28
-25 41 -30 67 -26 19 3 38 0 44 -6 10 -9 10 -5 2 16 -14 35 -14 33 4 50 13 14
11 18 -19 35 -66 39 -84 95 -37 118 23 12 22 12 -10 11 -32 -1 -34 -3 -34 -36
0 -32 -3 -36 -27 -39 l-27 -3 0 162 c-1 89 -3 164 -6 167 -3 3 -5 -38 -5 -90
l0 -96 -30 -4 -30 -5 0 115 c0 64 -2 113 -5 110 -2 -2 -5 -68 -6 -146 0 -130
-2 -142 -20 -147 -31 -10 -40 4 -39 64 3 110 0 264 -5 259 -3 -3 -5 -76 -6
-164 l0 -159 -30 33 c-30 34 -37 70 -17 90 9 9 9 12 0 12 -9 0 -12 32 -13 113
-2 141 -8 112 -11 -53 l-3 -125 -27 -3 -28 -3 -2 163 -2 163 -3 -157 c-2 -87
-8 -158 -13 -158 -5 0 -18 13 -30 30 -28 40 -24 82 10 92 25 8 25 8 -2 4 l-27
-3 -4 111 c-3 105 -3 103 -5 -35 l-2 -147 -30 -4 -30 -4 -3 165 c-2 163 -3
162 -5 -48z"/>
<path d="M1460 2577 l0 -164 -30 5 -30 4 -2 147 c-2 141 -2 142 -5 33 l-4
-112 -27 6 -27 6 25 -14 c36 -20 36 -51 1 -90 l-30 -33 -3 160 c-1 114 -3 133
-5 65 -4 -87 -6 -97 -31 -123 l-27 -28 -6 108 -5 108 -2 -112 -2 -113 -29 0
c-28 0 -30 2 -34 48 l-3 47 -2 -52 c-1 -29 -5 -53 -9 -53 -5 0 -21 -12 -38
-28 -21 -18 -41 -27 -65 -27 l-34 0 -1 -65 c0 -63 -1 -65 -25 -65 -35 0 -40
47 -9 89 l22 31 -26 -24 -26 -23 -4 53 -4 54 1 -57 c1 -56 1 -57 -24 -51 -40
9 -40 10 -40 100 0 48 -2 84 -5 81 -3 -3 -5 -75 -6 -161 l0 -157 -25 0 c-21 0
-24 5 -24 33 0 18 8 44 17 57 16 24 16 24 0 11 -16 -12 -17 -9 -17 38 0 28 -4
51 -10 51 -6 0 -10 -40 -10 -101 0 -96 -2 -103 -25 -125 l-25 -23 -2 137 -2
137 -5 -170 c-3 -93 -3 -192 0 -220 6 -47 13 -46 9 2 0 12 8 31 20 43 22 22
22 22 1 15 -17 -5 -21 -2 -21 17 0 22 37 75 46 66 2 -2 6 -53 9 -113 2 -61 8
-111 12 -112 5 -2 6 24 5 58 -4 71 10 77 43 16 16 -29 18 -41 9 -55 -9 -13 -8
-20 2 -30 8 -7 14 -10 14 -6 0 4 12 -3 27 -17 l27 -24 -28 34 c-36 44 -33 85
7 89 27 3 27 3 29 -65 l1 -68 6 65 6 65 28 -29 c36 -39 35 -86 -3 -98 -20 -6
-18 -7 8 -3 24 3 31 1 26 -8 -4 -6 -4 -9 1 -5 4 4 14 3 22 -4 9 -7 7 0 -4 20
-21 37 -10 65 26 70 20 3 21 -1 21 -58 0 -46 -3 -60 -12 -55 -7 4 -4 -1 7 -9
10 -9 33 -15 50 -14 17 1 36 -2 43 -6 9 -5 10 -1 2 18 -13 35 -3 56 26 56 22
0 24 -4 25 -47 1 -27 3 -39 6 -28 2 11 6 31 9 44 l5 24 25 -24 c20 -19 25 -32
22 -61 -3 -32 5 -48 25 -48 1 0 2 17 2 37 0 34 3 38 25 38 23 0 26 -5 31 -50
l6 -50 1 49 c2 44 4 47 19 35 26 -22 43 -71 31 -92 -8 -15 -17 -18 -41 -13
-26 5 -29 4 -14 -5 10 -6 29 -8 42 -5 14 4 25 1 28 -7 3 -6 6 79 6 191 1 137
-2 202 -10 202 -7 0 -9 -48 -7 -150 l3 -149 -27 26 -28 27 0 155 c0 110 -3
152 -11 144 -6 -6 -9 -47 -7 -107 2 -53 0 -96 -3 -96 -3 0 -15 10 -27 23 -18
19 -21 37 -24 119 -2 54 -6 98 -10 98 -5 0 -8 -42 -8 -94 0 -92 0 -93 -24 -93
-23 0 -24 4 -31 81 -3 45 -3 94 0 109 5 17 3 27 -4 27 -7 0 -11 -36 -12 -107
-3 -189 -1 -178 -31 -181 -28 -3 -28 -2 -28 52 0 60 4 65 32 39 10 -9 18 -11
18 -6 0 6 -12 18 -26 28 -26 17 -27 19 -20 96 4 52 3 79 -4 79 -6 0 -10 -52
-10 -142 l0 -143 -25 26 c-35 35 -37 79 -5 97 l25 14 -28 -7 -28 -6 1 108 c2
135 -1 175 -9 103 -6 -50 -8 -55 -31 -55 -21 0 -26 5 -28 31 -4 39 28 80 69
89 38 9 62 -10 55 -41 -3 -12 -1 -33 4 -46 10 -23 11 -23 6 0 -3 15 1 22 12
23 11 0 12 2 5 6 -22 8 -15 67 10 91 13 12 27 22 31 22 4 0 6 -27 4 -60 -2
-34 1 -59 6 -57 5 2 9 30 7 64 -3 66 14 87 44 57 18 -18 19 -28 4 -56 -9 -16
-8 -19 2 -12 7 4 27 7 44 6 17 -1 40 5 50 14 11 8 14 13 8 9 -10 -5 -13 9 -13
54 0 53 2 61 19 61 31 0 46 -27 34 -59 -8 -22 -7 -28 3 -28 11 0 14 40 14 209
0 114 -2 208 -5 208 -3 0 -5 -73 -5 -163z"/>
<path d="M4573 2673 c-10 -3 -13 -45 -13 -159 0 -85 3 -154 6 -154 3 0 14 5
25 10 17 10 19 23 19 160 0 153 -1 158 -37 143z"/>
<path d="M4283 2546 c-22 -10 -23 -15 -23 -164 0 -143 1 -154 18 -147 9 4 25
10 35 12 15 5 17 21 17 159 0 163 0 164 -47 140z"/>
<path d="M3890 2370 l-65 -28 -3 -156 -3 -155 76 31 75 32 0 153 c0 84 -3 153
-7 152 -5 0 -37 -13 -73 -29z"/>
<path d="M1574 1994 c3 -9 6 -106 6 -216 0 -111 3 -198 7 -194 4 4 6 22 5 40
-3 37 18 62 44 52 12 -5 15 -19 13 -68 -1 -34 2 -63 7 -65 5 -2 8 23 6 57 -4
69 8 77 38 28 25 -41 25 -64 3 -77 -17 -10 -17 -10 0 -11 9 0 17 -5 17 -12 0
-6 3 -8 7 -5 3 4 18 -3 32 -15 24 -22 24 -21 -3 11 -36 44 -33 85 7 89 27 3
27 3 29 -65 l2 -68 3 63 c4 56 6 61 22 52 22 -11 45 -64 37 -85 -3 -9 -16 -20
-28 -25 -21 -10 -21 -10 5 -5 15 3 27 2 27 -3 0 -5 6 -9 14 -9 10 0 11 6 3 28
-12 32 3 59 34 59 17 0 19 -8 19 -61 0 -45 -3 -59 -12 -54 -7 4 -4 -1 7 -10
12 -9 32 -15 48 -12 19 2 27 -1 28 -12 0 -11 2 -12 6 -3 2 6 8 10 13 7 5 -3 3
9 -3 26 -11 27 -10 32 8 45 31 23 40 11 41 -56 1 -35 5 -65 10 -67 5 -2 7 24
6 57 -4 66 5 75 37 34 23 -30 27 -64 9 -82 -9 -9 -8 -12 6 -12 10 0 14 -4 10
-12 -5 -7 -3 -8 5 -3 8 4 10 17 6 32 -7 29 9 53 36 53 17 0 19 -9 21 -67 l2
-68 3 63 c2 34 8 62 13 62 5 0 18 -12 30 -27 29 -37 24 -85 -10 -94 -14 -4
-18 -7 -8 -8 48 -3 48 -1 46 203 l-2 191 -6 -147 -5 -146 -28 24 -28 24 2 146
c0 80 -2 148 -5 151 -3 4 -6 -43 -6 -102 l0 -109 -31 30 c-30 29 -31 29 -27
122 2 50 0 92 -4 92 -5 0 -8 -42 -8 -93 l0 -94 -31 -1 -31 -1 4 110 c1 60 0
109 -4 109 -5 0 -8 -48 -8 -107 l0 -107 -30 29 c-28 27 -29 33 -33 124 -2 68
-3 50 -5 -64 l-3 -160 -30 33 c-35 39 -35 70 1 90 l25 14 -28 -7 -28 -6 2 111
c1 61 -1 114 -5 117 -3 4 -6 -43 -6 -104 l0 -111 -30 28 c-28 26 -29 31 -33
126 l-3 99 -2 -96 -2 -97 -30 -4 -30 -5 -2 116 -2 116 -5 -107 -6 -106 -27 23
c-26 22 -27 29 -31 122 l-3 98 -2 -96 -2 -96 -30 0 -30 0 0 110 c0 61 -3 108
-6 104 -3 -3 -5 -68 -5 -145 l2 -140 -31 -4 -30 -5 0 164 c0 112 -3 163 -11
163 -6 0 -8 -7 -5 -16z"/>
</g>
</svg>
