<?xml version="1.0" standalone="no"?>
<!DOCTYPE svg PUBLIC "-//W3C//DTD SVG 20010904//EN"
 "http://www.w3.org/TR/2001/REC-SVG-20010904/DTD/svg10.dtd">
<svg version="1.0" xmlns="http://www.w3.org/2000/svg"
 width="290.000000pt" height="174.000000pt" viewBox="0 0 290.000000 174.000000"
 preserveAspectRatio="xMidYMid meet">
<metadata>
Created by potrace 1.16, written by Peter Selinger 2001-2019
</metadata>
<g transform="translate(0.000000,174.000000) scale(0.100000,-0.100000)"
fill="#000000" stroke="none">
<path d="M309 1564 c-6 -7 -9 -25 -8 -41 5 -68 -2 -174 -11 -168 -5 3 -10 25
-10 49 0 67 -45 106 -123 106 -42 0 -54 -5 -83 -34 l-34 -34 0 -341 c0 -209 4
-341 10 -341 5 0 20 -21 32 -47 34 -67 65 -86 146 -91 55 -3 72 -9 95 -30 15
-14 27 -34 27 -45 0 -12 11 -23 30 -30 26 -10 30 -17 30 -48 0 -46 20 -64 74
-65 23 -1 51 -5 63 -9 16 -5 28 -1 46 17 20 20 24 35 25 91 1 75 -17 107 -62
107 -14 0 -30 10 -41 26 -15 24 -15 29 -1 65 9 22 16 51 16 65 0 23 2 25 16
13 13 -11 15 -26 11 -81 -7 -80 -17 -76 128 -49 91 17 102 17 118 3 37 -33
117 -13 117 29 0 10 8 20 19 24 10 3 23 15 29 28 11 22 11 22 11 -4 2 -47 68
-164 128 -223 74 -73 154 -113 261 -128 228 -33 426 64 517 254 19 40 35 78
35 86 0 21 48 -19 55 -46 10 -41 75 -51 115 -17 12 11 37 9 136 -9 l121 -22
-8 30 c-10 36 -12 97 -3 120 9 24 24 19 24 -9 0 -13 7 -42 16 -64 14 -36 14
-41 -1 -65 -11 -16 -27 -26 -41 -26 -13 0 -33 -9 -44 -20 -18 -18 -20 -30 -16
-93 4 -59 9 -75 27 -90 15 -12 30 -16 43 -12 12 4 41 8 64 9 52 1 86 33 76 71
-5 19 0 27 25 40 17 8 31 20 31 26 0 6 12 26 26 45 25 32 29 34 89 34 74 0
118 24 152 85 12 22 26 45 32 52 16 18 14 683 -2 703 -26 33 -62 50 -109 50
-39 0 -54 -6 -83 -31 -31 -27 -35 -37 -35 -78 0 -26 -5 -52 -12 -59 -9 -9 -8
-18 3 -38 11 -23 12 -28 1 -32 -8 -2 -34 -31 -58 -64 -40 -55 -44 -66 -44
-117 0 -52 5 -65 66 -166 37 -61 76 -120 88 -133 17 -20 18 -24 6 -32 -22 -14
-28 -12 -35 11 -4 12 -36 73 -72 136 -35 64 -77 142 -93 174 l-30 58 61 60
c63 63 100 131 101 184 1 94 -6 178 -16 185 -6 5 -55 9 -108 9 -82 0 -100 -3
-114 -18 -10 -11 -29 -19 -43 -19 -14 0 -43 -3 -63 -6 -35 -6 -36 -7 -31 -43
7 -47 11 -50 64 -59 35 -6 44 -12 44 -27 0 -17 -8 -21 -47 -23 -27 -2 -48 -4
-48 -6 0 -17 25 -66 33 -66 7 0 3 -7 -7 -15 -18 -13 -22 -10 -61 41 -32 44
-40 62 -37 86 6 41 -41 91 -81 85 -15 -2 -30 0 -33 5 -3 4 -20 8 -39 8 -24 0
-39 -7 -49 -22 l-16 -22 0 27 0 27 -495 0 -495 0 0 -27 0 -27 -16 23 c-14 19
-22 22 -53 17 -20 -3 -50 -6 -67 -6 -43 1 -85 -49 -82 -94 1 -24 -8 -44 -38
-83 -37 -46 -42 -49 -59 -37 -10 8 -14 14 -8 14 9 0 33 49 33 66 0 2 -21 4
-47 6 -40 2 -48 6 -48 23 0 15 9 21 44 27 53 9 57 12 65 59 6 35 5 37 -25 43
-17 3 -46 6 -64 6 -18 0 -39 8 -49 18 -14 16 -32 19 -116 19 -69 0 -103 -4
-111 -13z m170 -65 c26 -9 31 -16 31 -42 0 -71 -12 -108 -37 -118 -15 -6 -23
-16 -21 -26 3 -19 75 -64 130 -82 24 -8 44 -24 56 -46 23 -38 139 -121 165
-117 10 2 17 -3 17 -13 0 -21 27 -30 45 -15 12 10 15 10 15 -1 0 -8 3 -24 6
-36 6 -20 3 -23 -25 -23 -20 0 -31 5 -31 14 0 27 -174 136 -216 136 -15 0 -80
-85 -134 -174 -36 -59 -40 -72 -31 -93 17 -37 13 -113 -9 -162 -27 -59 -25
-75 14 -108 18 -15 37 -38 40 -51 6 -17 12 -21 32 -16 21 5 24 3 24 -23 0 -37
-4 -41 -36 -35 -16 3 -24 10 -22 21 2 10 -20 43 -49 75 -28 32 -53 66 -56 76
-2 10 4 42 14 71 37 105 17 153 -28 67 -43 -79 -74 -108 -120 -108 -48 0 -78
20 -103 70 -11 21 -25 40 -32 43 -7 2 -10 8 -6 12 4 4 14 2 23 -5 13 -10 15
-9 15 7 0 10 5 24 11 30 8 8 1 18 -25 38 -20 15 -36 32 -36 37 0 6 16 -2 36
-17 35 -27 37 -27 50 -10 21 29 17 39 -30 75 -40 29 -65 60 -50 60 3 0 30 -20
59 -45 l53 -45 16 24 c9 14 16 27 16 29 0 2 -34 28 -75 58 -41 29 -75 59 -75
66 0 7 36 -15 80 -49 77 -59 81 -61 95 -42 8 10 15 22 15 26 0 3 -40 38 -89
77 -49 39 -91 78 -94 86 -4 8 38 -21 91 -64 53 -43 100 -77 105 -74 4 2 7 17
7 33 0 34 -42 78 -138 147 l-62 45 0 66 c0 76 5 88 40 97 39 10 61 -13 63 -68
1 -27 -2 -47 -8 -47 -6 0 -9 16 -7 38 4 44 -15 67 -48 57 -17 -6 -20 -15 -20
-73 l0 -67 43 -27 c62 -39 145 -122 152 -151 8 -30 -18 -84 -90 -187 -68 -96
-83 -145 -61 -188 12 -22 28 -35 58 -44 40 -12 41 -12 69 21 52 63 269 446
258 455 -2 1 -20 13 -39 26 -49 33 -98 80 -121 116 -19 31 -44 178 -33 195 7
12 75 11 113 -2z m2042 -64 c-1 -38 -9 -84 -16 -102 -17 -41 -87 -117 -134
-145 -20 -12 -38 -23 -40 -24 -6 -5 129 -255 194 -359 35 -55 74 -106 87 -114
22 -13 29 -12 64 5 31 15 41 27 48 56 8 31 5 45 -17 87 -14 27 -44 74 -66 103
-22 30 -50 75 -61 101 -21 48 -21 48 -2 85 12 23 50 60 100 97 l80 60 1 67 c1
58 -2 67 -19 73 -31 10 -40 -2 -40 -51 0 -24 -4 -44 -10 -44 -5 0 -10 23 -10
50 0 43 3 52 23 61 15 7 31 7 50 0 26 -10 27 -13 27 -85 l0 -74 -62 -45 c-116
-84 -151 -129 -134 -173 5 -12 21 -3 78 42 40 32 85 69 101 83 18 17 27 20 27
10 -1 -8 -43 -47 -95 -88 -52 -41 -95 -77 -95 -80 0 -3 7 -15 15 -25 14 -19
18 -17 95 42 44 34 80 56 80 48 0 -7 -34 -37 -75 -66 l-75 -53 17 -28 17 -28
39 32 c61 50 77 60 77 49 0 -5 -22 -27 -50 -48 -53 -41 -58 -50 -36 -79 13
-17 15 -17 50 10 43 33 49 20 6 -15 -26 -21 -30 -30 -24 -57 6 -31 7 -32 30
-16 16 10 24 11 24 4 0 -6 -7 -14 -15 -18 -9 -3 -25 -23 -35 -44 -25 -47 -55
-69 -98 -69 -51 0 -68 14 -115 96 -33 55 -46 71 -51 59 -11 -29 -7 -63 14
-115 19 -48 19 -54 5 -84 -9 -18 -35 -52 -59 -75 -28 -28 -42 -49 -39 -61 3
-12 -2 -19 -21 -22 -32 -6 -36 -2 -36 35 0 26 3 28 24 23 20 -5 26 -1 32 16 3
13 22 36 40 51 40 33 41 44 14 115 -22 58 -25 104 -10 149 10 27 7 38 -26 94
-46 79 -123 179 -138 179 -42 0 -216 -111 -216 -137 0 -10 -9 -13 -27 -11 -25
3 -28 7 -25 33 4 36 10 44 22 26 10 -18 40 -7 40 14 0 10 7 15 18 13 25 -4
141 79 164 117 14 24 33 38 66 50 52 17 126 65 125 80 0 6 -11 15 -24 22 -26
13 -36 43 -38 110 -1 36 2 43 27 52 15 5 47 9 72 8 l45 -2 -4 -70z m-856 45
l-220 -5 0 -265 0 -265 218 0 217 0 0 -52 c0 -150 -80 -321 -183 -391 -56 -39
-153 -72 -212 -72 l-45 0 0 255 0 255 -215 0 -215 0 0 270 0 270 218 3 c119 1
316 2 437 3 l220 0 -220 -6z m-1 -132 c-16 -18 -37 -40 -47 -49 -18 -15 -17
-16 15 -16 18 0 47 0 63 -2 17 -1 53 1 80 5 l50 6 28 -60 c15 -33 27 -62 27
-63 0 -2 -26 -3 -57 -3 -34 1 -42 0 -20 -3 40 -5 46 -13 22 -33 -8 -7 -12 -16
-9 -21 3 -5 -6 -13 -20 -19 -14 -5 -30 -18 -36 -30 -14 -26 -16 -26 -95 11
-54 25 -66 34 -65 52 3 37 -2 43 -10 12 l-8 -30 -1 29 c0 17 7 39 18 50 19 20
19 22 1 56 l-18 35 -12 -25 c-14 -32 -60 -56 -60 -32 1 32 56 96 110 129 69
42 82 42 44 1z m-1262 -152 l59 -58 -92 -172 c-51 -94 -97 -181 -103 -193 -12
-26 -15 -27 -36 -13 -12 8 -11 12 7 32 12 13 51 73 87 133 60 101 66 115 66
166 0 51 -4 63 -44 117 -24 33 -50 62 -57 64 -10 3 -9 11 2 36 l14 32 19 -43
c11 -23 46 -68 78 -101z m550 20 l-3 -124 -25 25 c-21 21 -31 24 -63 18 -55
-9 -71 13 -40 57 12 18 34 43 48 55 14 11 23 24 19 28 -12 12 11 45 32 45 10
0 22 5 25 10 3 6 7 10 8 10 1 0 1 -56 -1 -124z m1046 91 c7 -5 10 -18 7 -28
-4 -11 2 -23 16 -32 11 -9 32 -32 46 -52 31 -46 18 -70 -34 -60 -39 7 -71 -8
-83 -38 -6 -15 -9 21 -9 105 -1 126 -1 126 22 121 12 -3 28 -10 35 -16z
m-1328 -282 c17 -9 30 -19 30 -24 0 -5 13 -11 29 -14 23 -5 28 -10 24 -26 -7
-29 32 -64 65 -57 70 14 127 24 130 21 2 -2 2 -27 0 -56 l-3 -53 -36 32 c-48
42 -86 42 -122 2 -15 -16 -32 -30 -37 -30 -5 0 -15 21 -21 46 -14 55 -58 101
-104 110 l-35 6 17 29 c20 33 24 34 63 14z m1615 -11 c19 -30 22 -27 -33 -43
-47 -13 -74 -47 -92 -113 -12 -42 -31 -42 -63 -1 -19 24 -80 33 -92 14 -3 -5
-24 -24 -48 -42 -23 -18 -36 -26 -29 -19 6 8 12 37 12 66 l0 52 43 -5 c23 -3
50 -10 59 -14 26 -14 64 -11 77 5 7 8 16 27 20 43 5 18 15 29 29 31 12 2 22 7
22 12 0 10 48 39 66 40 7 0 19 -12 29 -26z m-992 -117 c30 -25 35 -54 12 -63
-19 -8 -20 -34 -1 -34 7 0 19 7 26 15 18 21 31 19 57 -12 28 -31 28 -32 3 -61
-17 -21 -25 -23 -60 -17 l-40 7 0 -111 0 -111 -30 0 -30 0 0 109 c0 86 -3 110
-15 114 -8 4 -17 2 -20 -3 -11 -17 -47 -11 -66 12 -25 28 -24 38 7 67 21 20
29 23 42 13 43 -30 66 -26 44 8 -17 28 -15 40 10 67 27 28 29 28 61 0z m-656
-9 c13 -15 23 -44 27 -82 4 -33 8 -61 9 -62 1 -1 23 0 49 3 34 4 45 9 41 19
-3 8 1 14 11 14 9 0 16 -4 16 -9 0 -5 11 -11 24 -13 17 -4 23 -1 19 9 -7 18
28 17 53 -1 18 -14 18 -15 2 -21 -10 -4 -18 -13 -18 -21 0 -8 -4 -14 -10 -14
-5 0 -10 5 -10 11 0 12 -80 8 -172 -7 l-38 -7 0 65 c0 79 -19 103 -81 101 -44
-2 -45 -1 -23 21 23 24 77 20 101 -6z m1714 12 c31 -17 22 -29 -22 -27 -58 2
-79 -26 -79 -105 l0 -61 -41 7 c-98 16 -156 18 -163 7 -10 -16 -26 -14 -26 4
0 8 -4 15 -10 15 -16 0 -11 27 6 34 27 10 46 7 41 -7 -4 -10 2 -13 19 -9 13 2
24 8 24 13 0 5 7 9 16 9 10 0 14 -6 11 -14 -4 -11 6 -15 41 -18 26 -3 48 -3
50 -2 2 1 6 28 9 60 4 39 12 67 26 82 22 24 65 29 98 12z"/>
</g>
</svg>
